<?xml version="1.0" encoding="utf-8"?>
<svg version="1.1" xmlns="http://www.w3.org/2000/svg" xmlns:xlink="http://www.w3.org/1999/xlink" fill="rgba(0,0,0,0.2)" x="0" y="0" width="270" height="100" viewbox = "0 0 270 100">	
	<g transform="translate(170,0)">
		<circle cx="50" cy="50" r="46"  stroke="0" stroke-width="0" fill="none"/>
		<circle cx="50" cy="50" r="40"  stroke="0" stroke-width="0" fill="none"/>
		<path d="M15,70 a3,3 0,0,1 -5,3 a46,46 0,0,1 -6,-23 a46,46 0,0,1 92,0 a46,46 0,0,1 -79,32 a6,6 0,0,1 1,-7 l17,-14 a4,4 0,0,1 4,0.3 a10,10 1,0,0 5,5 a4,4 1,0,0 4,0.3 a50,50 1,0,0 18,-20 a2,2 1,0,0 0,-1 a6,6 1,0,0 -5,-6 a4,4 0,0,1 0,-4 a15,15 1,0,0 3,-5 a4,4 0,0,1 3,-3 a14,14 0,0,1 12,4 a8,8 0,0,1 2,4 a50,50 0,0,1 -40,44 a15,15 0,0,1 -15,-5 a4,4 1,0,0 -2,6 a40,40 1,0,0 66,-31 a40,40 1,0,0 -80,0 a40,40 1,0,0 2,13" fill="white"/>
		
		<path d="M22,50 a2,2 1,0,0 4,0 a23,23 0,0,1 25,-24 a2,2 1,0,0 0,-4 a26,26 1,0,0 -29,28" fill="white"/>
		<path d="M35,53 a2,2 1,0,0 3,0 a16,16 0,0,1 13,-15 a2,2 1,0,0 0,-3 a20,20 1,0,0 -16,18" fill="white"/>
		
		<path d="M15,70 a3,3 0,0,1 -5,3 a46,46 0,0,1 -6,-23 a46,46 0,0,1 92,0 a46,46 0,0,1 -79,32 a6,6 0,0,1 1,-7 l17,-14 a4,4 0,0,1 4,0.3 a10,10 1,0,0 5,5 a4,4 1,0,0 4,0.3 a50,50 1,0,0 18,-20 a2,2 1,0,0 0,-1 a6,6 1,0,0 -5,-6 a4,4 0,0,1 0,-4 a15,15 1,0,0 3,-5 a4,4 0,0,1 3,-3 a14,14 0,0,1 12,4 a8,8 0,0,1 2,4 a50,50 0,0,1 -40,44 a15,15 0,0,1 -15,-5 a4,4 1,0,0 -2,6 a40,40 1,0,0 66,-31 a40,40 1,0,0 -80,0 a40,40 1,0,0 2,13" fill="white"/>
	</g>
	
	<text x="5" y="45" font-size="30" fill="white" style="font-weight:bold;">TỔNG ĐÀI</text>
	<text x="20" y="90" font-size="50" fill="white" style="font-weight:bold;">1055</text>
</svg>